<svg width="44" height="60" viewBox="0 0 44 60" fill="none" xmlns="http://www.w3.org/2000/svg">
<path d="M0.90625 21.0938C0.90625 31.5136 8.86105 42.8184 15.8802 52.5877C17.5487 54.9086 19.147 57.1315 20.5374 59.2172C20.8635 59.7064 21.4129 60 21.9999 60C22.5869 60 23.1362 59.7064 23.4624 59.2172C24.8528 57.1315 26.451 54.9084 28.1195 52.5877C35.1389 42.8184 43.0938 31.5136 43.0938 21.0938C43.0938 9.46195 33.6318 0 22 0C10.3682 0 0.90625 9.46195 0.90625 21.0938ZM32.5469 21.0938C32.5469 26.9096 27.8159 31.6406 22 31.6406C16.1841 31.6406 11.4531 26.9096 11.4531 21.0938C11.4531 15.2779 16.1841 10.5469 22 10.5469C27.8159 10.5469 32.5469 15.2779 32.5469 21.0938Z" fill="#55281D"/>
</svg>
